Coordinates
version=1
nRows=27
nColumns=12
inDegrees=yes

Units are S.I. units (second, meters, Newtons, ...)
Angles are in degrees

endheader
time	SC_y	SC_z	SC_x	AC_y	AC_z	AC_x	GH_y	GH_z	GH_yy	EL_x	PS_y
       0.0              -14.39         -2.183          47.36          40.44         -2.472         -10.39          84.93         -10.98         -18.72          100.6          143.9
   0.01245               -14.4         -2.182          47.35          40.44         -2.472         -10.39          84.92         -10.97         -18.71          100.6          143.9
   0.02491               -14.4         -2.181          47.35          40.44         -2.472         -10.39          84.92         -10.96         -18.69          100.6          143.8
   0.03736              -14.41          -2.18          47.34          40.44         -2.472          -10.4          84.92         -10.94         -18.67          100.6          143.8
   0.04981              -14.42         -2.178          47.34          40.44         -2.472          -10.4          84.92         -10.93         -18.66          100.6          143.8
   0.06226              -14.42         -2.177          47.33          40.44         -2.473          -10.4          84.91         -10.91         -18.64          100.5          143.8
   0.07472              -14.43         -2.176          47.32          40.44         -2.473          -10.4          84.91          -10.9         -18.62          100.5          143.8
   0.08717              -14.44         -2.174          47.31          40.44         -2.473          -10.4          84.91         -10.88         -18.59          100.5          143.7
   0.09962              -14.45         -2.172          47.31          40.44         -2.473          -10.4           84.9         -10.86         -18.57          100.5          143.7
    0.1121              -14.46          -2.17           47.3          40.44         -2.473         -10.41           84.9         -10.84         -18.54          100.5          143.7
    0.1245              -14.47         -2.168          47.29          40.44         -2.473         -10.41          84.89         -10.82         -18.52          100.4          143.6
     0.137              -14.48         -2.166          47.28          40.43         -2.473         -10.41          84.89         -10.79         -18.49          100.4          143.6
    0.1494              -14.49         -2.164          47.27          40.43         -2.473         -10.41          84.88         -10.77         -18.45          100.4          143.6
    0.1619              -14.51         -2.161          47.26          40.43         -2.474         -10.42          84.88         -10.74         -18.42          100.4          143.5
    0.1743              -14.52         -2.159          47.24          40.43         -2.474         -10.42          84.87         -10.71         -18.38          100.3          143.5
    0.1868              -14.54         -2.156          47.23          40.43         -2.474         -10.42          84.86         -10.68         -18.34          100.3          143.4
    0.1992              -14.55         -2.152          47.21          40.43         -2.474         -10.43          84.86         -10.64          -18.3          100.3          143.4
    0.2117              -14.57         -2.149           47.2          40.43         -2.474         -10.43          84.85         -10.61         -18.25          100.2          143.3
    0.2242              -14.59         -2.145          47.18          40.42         -2.475         -10.44          84.84         -10.57          -18.2          100.2          143.2
    0.2366              -14.61         -2.141          47.16          40.42         -2.475         -10.44          84.83         -10.52         -18.14          100.1          143.2
    0.2491              -14.64         -2.136          47.14          40.42         -2.475         -10.45          84.82         -10.47         -18.08          100.1          143.1
    0.2615              -14.66         -2.131          47.11          40.42         -2.475         -10.45          84.81         -10.42         -18.01          100.0          143.0
     0.274              -14.69         -2.126          47.09          40.41         -2.476         -10.46           84.8         -10.36         -17.93          99.96          142.9
    0.2864              -14.72          -2.12          47.06          40.41         -2.476         -10.46          84.78         -10.29         -17.84          99.89          142.8
    0.2989              -14.76         -2.113          47.03          40.41         -2.477         -10.47          84.77         -10.21         -17.75          99.81          142.7
    0.3113               -14.8         -2.105          46.99           40.4         -2.477         -10.48          84.75         -10.13         -17.64          99.73          142.5
    0.3238              -14.85         -2.096          46.95           40.4         -2.478         -10.49          84.73         -10.04         -17.52          99.63          142.4
